<?xml version="1.0" encoding="UTF-8"?>
<svg id="uuid-afa5ff9f-672d-4f00-a656-46eb07fe87a1" data-name="Ebene 1" xmlns="http://www.w3.org/2000/svg" width="5000" height="5000" viewBox="0 0 5000 5000">
  <g>
    <path d="M3141,3214.534c12.725-11.551,25.275-23.514,37.648-35.887,186.295-186.295,279.443-412.511,279.443-678.648s-93.148-492.352-279.443-678.648c-186.295-186.295-412.511-279.443-678.648-279.443s-492.352,93.148-678.648,279.443c-4.855,4.855-9.648,9.738-14.376,14.648M2007,2200.366c23.531-38.026,52.134-73.877,85.812-107.554,111.777-111.777,247.507-167.666,407.189-167.666s295.411,55.889,407.189,167.666c111.777,111.777,167.666,247.507,167.666,407.189s-55.889,295.411-167.666,407.189c-11.796,11.796-23.859,22.97-36.189,33.521M3672,3810.153c-360.183,191.11-750.85,286.665-1172,286.665-518.079,0-990.027-144.601-1415.845-433.802-425.818-289.202-734.536-676.873-926.155-1163.016,191.618-486.142,500.336-873.815,926.155-1163.016,19.518-13.256,39.133-26.208,58.845-38.857M1143,1298.127c410.335-263.297,862.668-394.945,1357-394.945,518.079,0,990.027,144.601,1415.845,433.802,425.818,289.201,734.536,676.874,926.155,1163.016-191.618,486.142-500.336,873.814-926.155,1163.016-79.667,54.107-160.949,103.153-243.845,147.137M3321,3504.26c96.96-42.038,191.449-92.026,283.466-149.963,335.332-211.135,591.71-495.901,769.134-854.298-177.424-358.397-433.802-643.163-769.134-854.298-335.332-211.135-703.487-316.702-1104.466-316.702-369.153,0-710.487,89.475-1024,268.424M1476,1597.424c-27.029,15.428-53.851,31.52-80.466,48.278-335.332,211.135-591.71,495.901-769.134,854.298,177.424,358.397,433.802,643.163,769.134,854.298,335.332,211.135,703.487,316.702,1104.466,316.702,290.948,0,564.615-55.58,821-166.74" style="fill: #025558;"/>
    <g>
      <g>
        <path d="M3141,3214.534c12.725-11.551,25.275-23.514,37.648-35.887,60.695-60.695,111.502-125.626,152.423-194.796" style="fill: none; stroke: #025558; stroke-miterlimit: 10;"/>
        <path d="M3458.06,2508.369c.021-2.785.031-5.575.031-8.369,0-266.136-93.148-492.352-279.443-678.648-186.295-186.296-412.511-279.443-678.648-279.443-78.162,0-152.881,8.035-224.156,24.103" style="fill: none; stroke: #025558; stroke-dasharray: 498.017 498.017; stroke-miterlimit: 10;"/>
        <path d="M2043.529,1653.368c-79.478,43.35-153.537,99.344-222.177,167.984-4.855,4.855-9.648,9.738-14.376,14.648" style="fill: none; stroke: #025558; stroke-miterlimit: 10;"/>
      </g>
      <g>
        <path d="M2007,2200.365c23.531-38.026,52.135-73.877,85.812-107.554,39.774-39.774,82.581-72.471,128.42-98.092" style="fill: none; stroke: #025558; stroke-miterlimit: 10;"/>
        <path d="M2673.032,1949.77c87.164,26.42,165.216,74.101,234.157,143.041,104.481,104.481,160.132,229.89,166.951,376.226" style="fill: none; stroke: #025558; stroke-dasharray: 465.918 465.918; stroke-miterlimit: 10;"/>
        <path d="M3041.898,2698.261c-27.586,77.064-72.489,146.707-134.709,208.927-11.796,11.796-23.859,22.97-36.189,33.521" style="fill: none; stroke: #025558; stroke-miterlimit: 10;"/>
      </g>
      <g>
        <path d="M3672,3810.153c-89.086,47.268-180.036,88.691-272.851,124.268" style="fill: none; stroke: #025558; stroke-miterlimit: 10;"/>
        <path d="M2838.716,4075.375c-110.625,14.296-223.53,21.444-338.716,21.444-518.079,0-990.027-144.601-1415.845-433.802-425.818-289.201-734.536-676.873-926.155-1163.016,125.82-319.209,302.127-595.964,528.921-830.263" style="fill: none; stroke: #025558; stroke-dasharray: 579.24 579.24; stroke-miterlimit: 10;"/>
        <path d="M900.154,1474.005c58.69-47.896,120.024-93.57,184-137.021,19.518-13.256,39.133-26.208,58.845-38.857" style="fill: none; stroke: #025558; stroke-miterlimit: 10;"/>
      </g>
      <g>
        <path d="M1143,1298.127c85.276-54.718,172.366-103.751,261.269-147.098" style="fill: none; stroke: #025558; stroke-miterlimit: 10;"/>
        <path d="M1996.731,951.494c162.619-32.208,330.375-48.312,503.269-48.312,518.079,0,990.027,144.601,1415.845,433.802s734.536,676.874,926.155,1163.016c-150.243,381.171-372.475,701.805-666.697,961.903" style="fill: none; stroke: #025558; stroke-dasharray: 626.888 626.888; stroke-miterlimit: 10;"/>
        <path d="M3928.289,3654.514c-4.137,2.843-8.284,5.677-12.443,8.502-79.667,54.107-160.949,103.153-243.845,147.137" style="fill: none; stroke: #025558; stroke-miterlimit: 10;"/>
      </g>
      <g>
        <path d="M3321,3504.26c90.711-39.329,179.259-85.616,265.644-138.86" style="fill: none; stroke: #025558; stroke-miterlimit: 10;"/>
        <path d="M4222.917,2759.149c55.334-81.621,105.562-168.004,150.683-259.149-45.122-91.145-95.349-177.528-150.683-259.149" style="fill: none; stroke: #025558; stroke-miterlimit: 10;"/>
        <path d="M3850.024,1825.33c-76.515-64.854-158.368-124.729-245.559-179.627-335.332-211.135-703.487-316.702-1104.466-316.702-167.963,0-330.167,18.523-486.611,55.569" style="fill: none; stroke: #025558; stroke-dasharray: 560.024 560.024; stroke-miterlimit: 10;"/>
        <path d="M1746.341,1467.976c-92.302,36.112-182.415,79.261-270.341,129.448" style="fill: none; stroke: #025558; stroke-miterlimit: 10;"/>
      </g>
      <g>
        <path d="M1476,1597.424c-27.029,15.428-53.851,31.52-80.466,48.278-58.786,37.013-115.145,76.29-169.078,117.829" style="fill: none; stroke: #025558; stroke-miterlimit: 10;"/>
        <path d="M777.083,2240.851c-55.334,81.621-105.562,168.004-150.683,259.149,45.121,91.145,95.349,177.528,150.683,259.149" style="fill: none; stroke: #025558; stroke-miterlimit: 10;"/>
        <path d="M1115.639,3144.916c86.224,76.391,179.523,146.185,279.895,209.382,335.332,211.135,703.487,316.702,1104.466,316.702,97.136,0,192.345-6.195,285.629-18.585" style="fill: none; stroke: #025558; stroke-dasharray: 514.591 514.591; stroke-miterlimit: 10;"/>
        <path d="M3037.863,3602.577c96.611-25.593,190.99-58.365,283.137-98.316" style="fill: none; stroke: #025558; stroke-miterlimit: 10;"/>
      </g>
    </g>
  </g>
  <line x1="783" y1="855" x2="4239" y2="4176" style="fill: none; stroke: #025558; stroke-linecap: round; stroke-miterlimit: 10; stroke-width: 450px;"/>
</svg>