0
SECTION
2
HEADER
9
$ACADVER
1
AC1015
9
$INSUNITS
70
6
0
ENDSEC
0
SECTION
2
TABLES
0
TABLE
2
LTYPE
70
1
0
LTYPE
2
CONTINUOUS
70
0
3
Solid line
72
65
73
0
40
0.0
0
ENDTAB
0
TABLE
2
LAYER
70
13
0
LAYER
2
0
70
0
62
7
6
CONTINUOUS
0
LAYER
2
SITE_OUTLINE
70
0
62
8
6
CONTINUOUS
0
LAYER
2
ROOM_21
70
0
62
5
6
CONTINUOUS
0
LAYER
2
ROOM_22
70
0
62
3
6
CONTINUOUS
0
LAYER
2
ROOM_23
70
0
62
30
6
CONTINUOUS
0
LAYER
2
CORRIDOR
70
0
62
7
6
CONTINUOUS
0
LAYER
2
CONNECTOR
70
0
62
9
6
CONTINUOUS
0
LAYER
2
PROTRUSION
70
0
62
8
6
CONTINUOUS
0
LAYER
2
STAIR
70
0
62
33
6
CONTINUOUS
0
LAYER
2
ELEVATOR
70
0
62
151
6
CONTINUOUS
0
LAYER
2
ROOM_LABELS
70
0
62
7
6
CONTINUOUS
0
LAYER
2
ANNOTATION
70
0
62
7
6
CONTINUOUS
0
LAYER
2
GUIDE
70
0
62
8
6
CONTINUOUS
0
ENDTAB
0
TABLE
2
STYLE
70
1
0
STYLE
2
STANDARD
70
0
40
0.0
41
1.0
50
0.0
71
0
42
0.2
3
txt
4

0
ENDTAB
0
ENDSEC
0
SECTION
2
ENTITIES
0
LWPOLYLINE
8
CORRIDOR
90
4
70
1
10
0.0000
20
8.5000
10
86.0000
20
8.5000
10
86.0000
20
13.5000
10
0.0000
20
13.5000
0
LWPOLYLINE
8
ROOM_21
90
4
70
1
10
0.0000
20
0.0000
10
10.7500
20
0.0000
10
10.7500
20
8.5000
10
0.0000
20
8.5000
0
LWPOLYLINE
8
ROOM_21
90
4
70
1
10
10.7500
20
0.0000
10
21.5000
20
0.0000
10
21.5000
20
8.5000
10
10.7500
20
8.5000
0
LWPOLYLINE
8
ROOM_21
90
4
70
1
10
21.5000
20
0.0000
10
32.2500
20
0.0000
10
32.2500
20
8.5000
10
21.5000
20
8.5000
0
LWPOLYLINE
8
ROOM_21
90
4
70
1
10
32.2500
20
0.0000
10
43.0000
20
0.0000
10
43.0000
20
8.5000
10
32.2500
20
8.5000
0
LWPOLYLINE
8
ROOM_21
90
4
70
1
10
43.0000
20
0.0000
10
53.7500
20
0.0000
10
53.7500
20
8.5000
10
43.0000
20
8.5000
0
LWPOLYLINE
8
ROOM_21
90
4
70
1
10
53.7500
20
0.0000
10
64.5000
20
0.0000
10
64.5000
20
8.5000
10
53.7500
20
8.5000
0
LWPOLYLINE
8
ROOM_21
90
4
70
1
10
64.5000
20
0.0000
10
75.2500
20
0.0000
10
75.2500
20
8.5000
10
64.5000
20
8.5000
0
LWPOLYLINE
8
ROOM_21
90
4
70
1
10
75.2500
20
0.0000
10
86.0000
20
0.0000
10
86.0000
20
8.5000
10
75.2500
20
8.5000
0
LWPOLYLINE
8
ROOM_21
90
4
70
1
10
0.0000
20
13.5000
10
10.7500
20
13.5000
10
10.7500
20
22.0000
10
0.0000
20
22.0000
0
LWPOLYLINE
8
ROOM_21
90
4
70
1
10
10.7500
20
13.5000
10
21.5000
20
13.5000
10
21.5000
20
22.0000
10
10.7500
20
22.0000
0
LWPOLYLINE
8
ROOM_21
90
4
70
1
10
21.5000
20
13.5000
10
32.2500
20
13.5000
10
32.2500
20
22.0000
10
21.5000
20
22.0000
0
LWPOLYLINE
8
ROOM_21
90
4
70
1
10
32.2500
20
13.5000
10
43.0000
20
13.5000
10
43.0000
20
22.0000
10
32.2500
20
22.0000
0
LWPOLYLINE
8
ROOM_21
90
4
70
1
10
43.0000
20
13.5000
10
53.7500
20
13.5000
10
53.7500
20
22.0000
10
43.0000
20
22.0000
0
LWPOLYLINE
8
ROOM_21
90
4
70
1
10
53.7500
20
13.5000
10
64.5000
20
13.5000
10
64.5000
20
22.0000
10
53.7500
20
22.0000
0
LWPOLYLINE
8
ROOM_21
90
4
70
1
10
64.5000
20
13.5000
10
75.2500
20
13.5000
10
75.2500
20
22.0000
10
64.5000
20
22.0000
0
LWPOLYLINE
8
ROOM_21
90
4
70
1
10
75.2500
20
13.5000
10
86.0000
20
13.5000
10
86.0000
20
22.0000
10
75.2500
20
22.0000
0
LWPOLYLINE
8
CORRIDOR
90
4
70
1
10
72.0000
20
22.0000
10
79.0000
20
22.0000
10
79.0000
20
72.0000
10
72.0000
20
72.0000
0
LWPOLYLINE
8
ROOM_22
90
4
70
1
10
66.0000
20
22.0000
10
72.0000
20
22.0000
10
72.0000
20
30.3333
10
66.0000
20
30.3333
0
LWPOLYLINE
8
ROOM_22
90
4
70
1
10
66.0000
20
30.3333
10
72.0000
20
30.3333
10
72.0000
20
38.6667
10
66.0000
20
38.6667
0
LWPOLYLINE
8
ROOM_22
90
4
70
1
10
66.0000
20
38.6667
10
72.0000
20
38.6667
10
72.0000
20
47.0000
10
66.0000
20
47.0000
0
LWPOLYLINE
8
ROOM_22
90
4
70
1
10
66.0000
20
47.0000
10
72.0000
20
47.0000
10
72.0000
20
55.3333
10
66.0000
20
55.3333
0
LWPOLYLINE
8
ROOM_22
90
4
70
1
10
66.0000
20
55.3333
10
72.0000
20
55.3333
10
72.0000
20
63.6667
10
66.0000
20
63.6667
0
LWPOLYLINE
8
ROOM_22
90
4
70
1
10
66.0000
20
63.6667
10
72.0000
20
63.6667
10
72.0000
20
72.0000
10
66.0000
20
72.0000
0
LWPOLYLINE
8
ROOM_22
90
4
70
1
10
79.0000
20
22.0000
10
86.0000
20
22.0000
10
86.0000
20
30.3333
10
79.0000
20
30.3333
0
LWPOLYLINE
8
ROOM_22
90
4
70
1
10
79.0000
20
30.3333
10
86.0000
20
30.3333
10
86.0000
20
38.6667
10
79.0000
20
38.6667
0
LWPOLYLINE
8
ROOM_22
90
4
70
1
10
79.0000
20
38.6667
10
86.0000
20
38.6667
10
86.0000
20
47.0000
10
79.0000
20
47.0000
0
LWPOLYLINE
8
ROOM_22
90
4
70
1
10
79.0000
20
47.0000
10
86.0000
20
47.0000
10
86.0000
20
55.3333
10
79.0000
20
55.3333
0
LWPOLYLINE
8
ROOM_22
90
4
70
1
10
79.0000
20
55.3333
10
86.0000
20
55.3333
10
86.0000
20
63.6667
10
79.0000
20
63.6667
0
LWPOLYLINE
8
ROOM_22
90
4
70
1
10
79.0000
20
63.6667
10
86.0000
20
63.6667
10
86.0000
20
72.0000
10
79.0000
20
72.0000
0
LWPOLYLINE
8
CORRIDOR
90
4
70
1
10
-10.0000
20
80.0000
10
86.0000
20
80.0000
10
86.0000
20
85.0000
10
-10.0000
20
85.0000
0
LWPOLYLINE
8
ROOM_23
90
4
70
1
10
-10.0000
20
72.0000
10
6.0000
20
72.0000
10
6.0000
20
80.0000
10
-10.0000
20
80.0000
0
LWPOLYLINE
8
ROOM_23
90
4
70
1
10
6.0000
20
72.0000
10
22.0000
20
72.0000
10
22.0000
20
80.0000
10
6.0000
20
80.0000
0
LWPOLYLINE
8
ROOM_23
90
4
70
1
10
22.0000
20
72.0000
10
38.0000
20
72.0000
10
38.0000
20
80.0000
10
22.0000
20
80.0000
0
LWPOLYLINE
8
ROOM_23
90
4
70
1
10
38.0000
20
72.0000
10
54.0000
20
72.0000
10
54.0000
20
80.0000
10
38.0000
20
80.0000
0
LWPOLYLINE
8
ROOM_23
90
4
70
1
10
54.0000
20
72.0000
10
70.0000
20
72.0000
10
70.0000
20
80.0000
10
54.0000
20
80.0000
0
LWPOLYLINE
8
ROOM_23
90
4
70
1
10
70.0000
20
72.0000
10
86.0000
20
72.0000
10
86.0000
20
80.0000
10
70.0000
20
80.0000
0
LWPOLYLINE
8
ROOM_23
90
4
70
1
10
-10.0000
20
85.0000
10
6.0000
20
85.0000
10
6.0000
20
94.0000
10
-10.0000
20
94.0000
0
LWPOLYLINE
8
ROOM_23
90
4
70
1
10
6.0000
20
85.0000
10
22.0000
20
85.0000
10
22.0000
20
94.0000
10
6.0000
20
94.0000
0
LWPOLYLINE
8
ROOM_23
90
4
70
1
10
22.0000
20
85.0000
10
38.0000
20
85.0000
10
38.0000
20
94.0000
10
22.0000
20
94.0000
0
LWPOLYLINE
8
ROOM_23
90
4
70
1
10
38.0000
20
85.0000
10
54.0000
20
85.0000
10
54.0000
20
94.0000
10
38.0000
20
94.0000
0
LWPOLYLINE
8
ROOM_23
90
4
70
1
10
54.0000
20
85.0000
10
70.0000
20
85.0000
10
70.0000
20
94.0000
10
54.0000
20
94.0000
0
LWPOLYLINE
8
ROOM_23
90
4
70
1
10
70.0000
20
85.0000
10
86.0000
20
85.0000
10
86.0000
20
94.0000
10
70.0000
20
94.0000
0
LWPOLYLINE
8
CONNECTOR
90
4
70
1
10
72.0000
20
13.5000
10
79.0000
20
13.5000
10
79.0000
20
22.0000
10
72.0000
20
22.0000
0
LWPOLYLINE
8
CONNECTOR
90
4
70
1
10
72.0000
20
72.0000
10
79.0000
20
72.0000
10
79.0000
20
80.0000
10
72.0000
20
80.0000
0
LWPOLYLINE
8
PROTRUSION
90
4
70
1
10
-6.0000
20
-2.0000
10
0.0000
20
-2.0000
10
0.0000
20
22.0000
10
-6.0000
20
22.0000
0
LWPOLYLINE
8
PROTRUSION
90
4
70
1
10
86.0000
20
0.0000
10
92.0000
20
0.0000
10
92.0000
20
14.0000
10
86.0000
20
14.0000
0
LWPOLYLINE
8
PROTRUSION
90
4
70
1
10
-16.0000
20
72.0000
10
-10.0000
20
72.0000
10
-10.0000
20
94.0000
10
-16.0000
20
94.0000
0
LWPOLYLINE
8
PROTRUSION
90
4
70
1
10
86.0000
20
80.0000
10
92.0000
20
80.0000
10
92.0000
20
94.0000
10
86.0000
20
94.0000
0
LWPOLYLINE
8
PROTRUSION
90
4
70
1
10
33.0000
20
77.0000
10
40.0000
20
77.0000
10
40.0000
20
80.0000
10
33.0000
20
80.0000
0
LWPOLYLINE
8
STAIR
90
4
70
1
10
-5.0000
20
2.0000
10
-1.0000
20
2.0000
10
-1.0000
20
12.0000
10
-5.0000
20
12.0000
0
LWPOLYLINE
8
STAIR
90
4
70
1
10
87.0000
20
2.0000
10
91.0000
20
2.0000
10
91.0000
20
12.0000
10
87.0000
20
12.0000
0
LWPOLYLINE
8
STAIR
90
4
70
1
10
87.0000
20
82.0000
10
91.0000
20
82.0000
10
91.0000
20
92.0000
10
87.0000
20
92.0000
0
LWPOLYLINE
8
STAIR
90
4
70
1
10
-15.0000
20
82.0000
10
-11.0000
20
82.0000
10
-11.0000
20
92.0000
10
-15.0000
20
92.0000
0
LWPOLYLINE
8
ELEVATOR
90
4
70
1
10
35.0000
20
78.0000
10
38.0000
20
78.0000
10
38.0000
20
84.0000
10
35.0000
20
84.0000
0
LWPOLYLINE
8
GUIDE
90
2
70
0
10
-18.0000
20
-4.0000
10
94.0000
20
-4.0000
0
LWPOLYLINE
8
GUIDE
90
2
70
0
10
-18.0000
20
-16.5000
10
94.0000
20
-16.5000
0
LWPOLYLINE
8
GUIDE
90
2
70
0
10
-18.0000
20
95.0000
10
94.0000
20
95.0000
0
LWPOLYLINE
8
GUIDE
90
4
70
1
10
-12.0000
20
30.0000
10
23.0560
20
30.0000
10
23.0560
20
62.3147
10
-12.0000
20
62.3147
0
LWPOLYLINE
8
SITE_OUTLINE
90
53
70
1
10
-6.0642
20
36.0207
10
-6.0831
20
38.9322
10
-4.1992
20
38.8781
10
-4.1160
20
37.9664
10
-3.2467
20
38.1309
10
-3.0210
20
39.4636
10
12.7148
20
39.3637
10
12.8050
20
37.4771
10
14.7314
20
37.3431
10
14.7915
20
51.6516
10
16.9624
20
51.7853
10
16.8183
20
53.8393
10
-1.6315
20
53.9511
10
-1.7447
20
50.9623
10
-3.6428
20
50.9277
10
-3.6230
20
47.8162
10
-7.6529
20
47.7702
10
-9.0000
20
48.8294
10
-8.9235
20
53.5401
10
-7.0340
20
53.6302
10
-6.9995
20
54.9062
10
-7.5427
20
55.4276
10
-7.4139
20
57.2049
10
-6.2663
20
57.9884
10
-5.0413
20
58.0917
10
-3.9210
20
56.9973
10
-3.8511
20
56.5459
10
-1.4610
20
56.5703
10
-1.2831
20
58.2119
10
1.1723
20
58.1896
10
1.3380
20
57.1203
10
2.5194
20
57.1304
10
2.7122
20
58.3147
10
17.1258
20
58.1830
10
17.1673
20
56.0563
10
18.0945
20
56.0270
10
18.0812
20
56.4872
10
20.0560
20
56.3878
10
19.8815
20
53.7950
10
18.2506
20
53.7153
10
18.2179
20
52.0664
10
19.8180
20
51.5953
10
19.8686
20
37.1282
10
17.7196
20
37.2277
10
17.7161
20
34.0856
10
14.9312
20
34.0000
10
14.7697
20
35.7918
10
12.8392
20
35.9522
10
12.7234
20
34.8393
10
-3.1835
20
34.7395
10
-3.2010
20
36.3509
10
-4.1838
20
36.5446
10
-4.2370
20
35.9578
0
LWPOLYLINE
8
SITE_OUTLINE
90
53
70
1
10
-1.7518
20
15.0037
10
-1.8307
20
27.1350
10
6.0188
20
26.9097
10
6.3656
20
23.1109
10
9.9875
20
23.7961
10
10.9281
20
29.3491
10
76.4937
20
28.9331
10
76.8697
20
21.0722
10
84.8963
20
20.5138
10
85.1466
20
80.1327
10
94.1922
20
80.6898
10
93.5917
20
89.2481
10
16.7177
20
89.7138
10
16.2460
20
77.2606
10
8.3373
20
77.1163
10
8.4198
20
64.1519
10
-8.3716
20
63.9601
10
-13.9845
20
68.3734
10
-13.6659
20
88.0012
10
-5.7930
20
88.3766
10
-5.6492
20
93.6934
10
-7.9126
20
95.8659
10
-7.3756
20
103.2713
10
-2.5941
20
106.5357
10
2.5101
20
106.9663
10
7.1778
20
102.4065
10
7.4694
20
100.5254
10
17.4280
20
100.6270
10
18.1692
20
107.4670
10
28.4000
20
107.3741
10
29.0905
20
102.9189
10
34.0129
20
102.9608
10
34.8164
20
107.8955
10
94.8732
20
107.3467
10
95.0457
20
98.4854
10
98.9092
20
98.3633
10
98.8539
20
100.2810
10
107.0823
20
99.8665
10
106.3549
20
89.0634
10
99.5596
20
88.7312
10
99.4236
20
81.8610
10
106.0906
20
79.8979
10
106.3012
20
19.6182
10
97.3470
20
20.0328
10
97.3328
20
6.9408
10
85.7289
20
6.5842
10
85.0557
20
14.0499
10
77.0120
20
14.7183
10
76.5298
20
10.0813
10
10.2507
20
9.6657
10
10.1780
20
16.3796
10
6.0829
20
17.1868
10
5.8614
20
14.7417
0
TEXT
8
ROOM_LABELS
10
5.3750
20
4.2500
30
0.0
40
1.7500
1
21101
50
0.0000
7
STANDARD
72
1
73
2
11
5.3750
21
4.2500
31
0.0
0
TEXT
8
ROOM_LABELS
10
16.1250
20
4.2500
30
0.0
40
1.7500
1
21102
50
0.0000
7
STANDARD
72
1
73
2
11
16.1250
21
4.2500
31
0.0
0
TEXT
8
ROOM_LABELS
10
26.8750
20
4.2500
30
0.0
40
1.7500
1
21103
50
0.0000
7
STANDARD
72
1
73
2
11
26.8750
21
4.2500
31
0.0
0
TEXT
8
ROOM_LABELS
10
37.6250
20
4.2500
30
0.0
40
1.7500
1
21104
50
0.0000
7
STANDARD
72
1
73
2
11
37.6250
21
4.2500
31
0.0
0
TEXT
8
ROOM_LABELS
10
48.3750
20
4.2500
30
0.0
40
1.7500
1
21105
50
0.0000
7
STANDARD
72
1
73
2
11
48.3750
21
4.2500
31
0.0
0
TEXT
8
ROOM_LABELS
10
59.1250
20
4.2500
30
0.0
40
1.7500
1
21106
50
0.0000
7
STANDARD
72
1
73
2
11
59.1250
21
4.2500
31
0.0
0
TEXT
8
ROOM_LABELS
10
69.8750
20
4.2500
30
0.0
40
1.7500
1
21107
50
0.0000
7
STANDARD
72
1
73
2
11
69.8750
21
4.2500
31
0.0
0
TEXT
8
ROOM_LABELS
10
80.6250
20
4.2500
30
0.0
40
1.7500
1
21108
50
0.0000
7
STANDARD
72
1
73
2
11
80.6250
21
4.2500
31
0.0
0
TEXT
8
ROOM_LABELS
10
5.3750
20
17.7500
30
0.0
40
1.7500
1
21109
50
0.0000
7
STANDARD
72
1
73
2
11
5.3750
21
17.7500
31
0.0
0
TEXT
8
ROOM_LABELS
10
16.1250
20
17.7500
30
0.0
40
1.7500
1
21110
50
0.0000
7
STANDARD
72
1
73
2
11
16.1250
21
17.7500
31
0.0
0
TEXT
8
ROOM_LABELS
10
26.8750
20
17.7500
30
0.0
40
1.7500
1
21111
50
0.0000
7
STANDARD
72
1
73
2
11
26.8750
21
17.7500
31
0.0
0
TEXT
8
ROOM_LABELS
10
37.6250
20
17.7500
30
0.0
40
1.7500
1
21112
50
0.0000
7
STANDARD
72
1
73
2
11
37.6250
21
17.7500
31
0.0
0
TEXT
8
ROOM_LABELS
10
48.3750
20
17.7500
30
0.0
40
1.7500
1
21113
50
0.0000
7
STANDARD
72
1
73
2
11
48.3750
21
17.7500
31
0.0
0
TEXT
8
ROOM_LABELS
10
59.1250
20
17.7500
30
0.0
40
1.7500
1
21114
50
0.0000
7
STANDARD
72
1
73
2
11
59.1250
21
17.7500
31
0.0
0
TEXT
8
ROOM_LABELS
10
69.8750
20
17.7500
30
0.0
40
1.7500
1
21115
50
0.0000
7
STANDARD
72
1
73
2
11
69.8750
21
17.7500
31
0.0
0
TEXT
8
ROOM_LABELS
10
80.6250
20
17.7500
30
0.0
40
1.7500
1
21116
50
0.0000
7
STANDARD
72
1
73
2
11
80.6250
21
17.7500
31
0.0
0
TEXT
8
ROOM_LABELS
10
69.0000
20
26.1667
30
0.0
40
1.7500
1
22101
50
90.0000
7
STANDARD
72
1
73
2
11
69.0000
21
26.1667
31
0.0
0
TEXT
8
ROOM_LABELS
10
69.0000
20
34.5000
30
0.0
40
1.7500
1
22102
50
90.0000
7
STANDARD
72
1
73
2
11
69.0000
21
34.5000
31
0.0
0
TEXT
8
ROOM_LABELS
10
69.0000
20
42.8333
30
0.0
40
1.7500
1
22103
50
90.0000
7
STANDARD
72
1
73
2
11
69.0000
21
42.8333
31
0.0
0
TEXT
8
ROOM_LABELS
10
69.0000
20
51.1667
30
0.0
40
1.7500
1
22104
50
90.0000
7
STANDARD
72
1
73
2
11
69.0000
21
51.1667
31
0.0
0
TEXT
8
ROOM_LABELS
10
69.0000
20
59.5000
30
0.0
40
1.7500
1
22105
50
90.0000
7
STANDARD
72
1
73
2
11
69.0000
21
59.5000
31
0.0
0
TEXT
8
ROOM_LABELS
10
69.0000
20
67.8333
30
0.0
40
1.7500
1
22106
50
90.0000
7
STANDARD
72
1
73
2
11
69.0000
21
67.8333
31
0.0
0
TEXT
8
ROOM_LABELS
10
82.5000
20
26.1667
30
0.0
40
1.7500
1
22107
50
90.0000
7
STANDARD
72
1
73
2
11
82.5000
21
26.1667
31
0.0
0
TEXT
8
ROOM_LABELS
10
82.5000
20
34.5000
30
0.0
40
1.7500
1
22108
50
90.0000
7
STANDARD
72
1
73
2
11
82.5000
21
34.5000
31
0.0
0
TEXT
8
ROOM_LABELS
10
82.5000
20
42.8333
30
0.0
40
1.7500
1
22109
50
90.0000
7
STANDARD
72
1
73
2
11
82.5000
21
42.8333
31
0.0
0
TEXT
8
ROOM_LABELS
10
82.5000
20
51.1667
30
0.0
40
1.7500
1
22110
50
90.0000
7
STANDARD
72
1
73
2
11
82.5000
21
51.1667
31
0.0
0
TEXT
8
ROOM_LABELS
10
82.5000
20
59.5000
30
0.0
40
1.7500
1
22111
50
90.0000
7
STANDARD
72
1
73
2
11
82.5000
21
59.5000
31
0.0
0
TEXT
8
ROOM_LABELS
10
82.5000
20
67.8333
30
0.0
40
1.7500
1
22112
50
90.0000
7
STANDARD
72
1
73
2
11
82.5000
21
67.8333
31
0.0
0
TEXT
8
ROOM_LABELS
10
-2.0000
20
76.0000
30
0.0
40
1.7500
1
23101
50
0.0000
7
STANDARD
72
1
73
2
11
-2.0000
21
76.0000
31
0.0
0
TEXT
8
ROOM_LABELS
10
14.0000
20
76.0000
30
0.0
40
1.7500
1
23102
50
0.0000
7
STANDARD
72
1
73
2
11
14.0000
21
76.0000
31
0.0
0
TEXT
8
ROOM_LABELS
10
30.0000
20
76.0000
30
0.0
40
1.7500
1
23103
50
0.0000
7
STANDARD
72
1
73
2
11
30.0000
21
76.0000
31
0.0
0
TEXT
8
ROOM_LABELS
10
46.0000
20
76.0000
30
0.0
40
1.7500
1
23104
50
0.0000
7
STANDARD
72
1
73
2
11
46.0000
21
76.0000
31
0.0
0
TEXT
8
ROOM_LABELS
10
62.0000
20
76.0000
30
0.0
40
1.7500
1
23105
50
0.0000
7
STANDARD
72
1
73
2
11
62.0000
21
76.0000
31
0.0
0
TEXT
8
ROOM_LABELS
10
78.0000
20
76.0000
30
0.0
40
1.7500
1
23106
50
0.0000
7
STANDARD
72
1
73
2
11
78.0000
21
76.0000
31
0.0
0
TEXT
8
ROOM_LABELS
10
-2.0000
20
89.5000
30
0.0
40
1.7500
1
23107
50
0.0000
7
STANDARD
72
1
73
2
11
-2.0000
21
89.5000
31
0.0
0
TEXT
8
ROOM_LABELS
10
14.0000
20
89.5000
30
0.0
40
1.7500
1
23108
50
0.0000
7
STANDARD
72
1
73
2
11
14.0000
21
89.5000
31
0.0
0
TEXT
8
ROOM_LABELS
10
30.0000
20
89.5000
30
0.0
40
1.7500
1
23109
50
0.0000
7
STANDARD
72
1
73
2
11
30.0000
21
89.5000
31
0.0
0
TEXT
8
ROOM_LABELS
10
46.0000
20
89.5000
30
0.0
40
1.7500
1
23110
50
0.0000
7
STANDARD
72
1
73
2
11
46.0000
21
89.5000
31
0.0
0
TEXT
8
ROOM_LABELS
10
62.0000
20
89.5000
30
0.0
40
1.7500
1
23111
50
0.0000
7
STANDARD
72
1
73
2
11
62.0000
21
89.5000
31
0.0
0
TEXT
8
ROOM_LABELS
10
78.0000
20
89.5000
30
0.0
40
1.7500
1
23112
50
0.0000
7
STANDARD
72
1
73
2
11
78.0000
21
89.5000
31
0.0
0
TEXT
8
ANNOTATION
10
-3.0000
20
7.0000
30
0.0
40
2.2000
1
Stair A
50
90.0000
7
STANDARD
72
1
73
2
11
-3.0000
21
7.0000
31
0.0
0
TEXT
8
ANNOTATION
10
89.0000
20
7.0000
30
0.0
40
2.2000
1
Stair B
50
90.0000
7
STANDARD
72
1
73
2
11
89.0000
21
7.0000
31
0.0
0
TEXT
8
ANNOTATION
10
89.0000
20
87.0000
30
0.0
40
2.2000
1
Stair C
50
90.0000
7
STANDARD
72
1
73
2
11
89.0000
21
87.0000
31
0.0
0
TEXT
8
ANNOTATION
10
-13.0000
20
87.0000
30
0.0
40
2.2000
1
Stair D
50
90.0000
7
STANDARD
72
1
73
2
11
-13.0000
21
87.0000
31
0.0
0
TEXT
8
ANNOTATION
10
36.5000
20
81.0000
30
0.0
40
2.0000
1
EV
50
90.0000
7
STANDARD
72
1
73
2
11
36.5000
21
81.0000
31
0.0
0
TEXT
8
ANNOTATION
10
36.0000
20
83.0000
30
0.0
40
4.5000
1
WING 23
50
0.0000
7
STANDARD
72
1
73
2
11
36.0000
21
83.0000
31
0.0
0
TEXT
8
ANNOTATION
10
76.0000
20
47.0000
30
0.0
40
4.5000
1
WING 22
50
90.0000
7
STANDARD
72
1
73
2
11
76.0000
21
47.0000
31
0.0
0
TEXT
8
ANNOTATION
10
43.0000
20
11.0000
30
0.0
40
4.5000
1
WING 21
50
0.0000
7
STANDARD
72
1
73
2
11
43.0000
21
11.0000
31
0.0
0
TEXT
8
ANNOTATION
10
38.0000
20
100.0000
30
0.0
40
3.0000
1
Engineering Building 1 - Level 1
50
0.0000
7
STANDARD
72
1
73
2
11
38.0000
21
100.0000
31
0.0
0
TEXT
8
GUIDE
10
38.0000
20
96.0000
30
0.0
40
2.1000
1
Reference CAD | local meters
50
0.0000
7
STANDARD
72
1
73
2
11
38.0000
21
96.0000
31
0.0
0
TEXT
8
GUIDE
10
10.0000
20
-8.0000
30
0.0
40
1.7000
1
Origin: SW corner of Wing 21 body
50
0.0000
7
STANDARD
72
1
73
2
11
10.0000
21
-8.0000
31
0.0
0
TEXT
8
GUIDE
10
22.0000
20
-11.0000
30
0.0
40
1.7000
1
Outline: OSM footprint | Interior: eng1.json schematic
50
0.0000
7
STANDARD
72
1
73
2
11
22.0000
21
-11.0000
31
0.0
0
TEXT
8
GUIDE
10
27.0000
20
-14.0000
30
0.0
40
1.7000
1
Use ROOM_LABELS layer as generated refs, not surveyed room IDs.
50
0.0000
7
STANDARD
72
1
73
2
11
27.0000
21
-14.0000
31
0.0
0
TEXT
8
GUIDE
10
5.5280
20
60.1147
30
0.0
40
1.8000
1
Key map
50
0.0000
7
STANDARD
72
1
73
2
11
5.5280
21
60.1147
31
0.0
0
TEXT
8
GUIDE
10
2.9963
20
52.3398
30
0.0
40
1.4500
1
W23
50
0.0000
7
STANDARD
72
1
73
2
11
2.9963
21
52.3398
31
0.0
0
TEXT
8
GUIDE
10
12.5963
20
43.6998
30
0.0
40
1.4500
1
W22
50
0.0000
7
STANDARD
72
1
73
2
11
12.5963
21
43.6998
31
0.0
0
TEXT
8
GUIDE
10
4.6763
20
35.0598
30
0.0
40
1.4500
1
W21
50
0.0000
7
STANDARD
72
1
73
2
11
4.6763
21
35.0598
31
0.0
0
ENDSEC
0
EOF
