<svg xmlns="http://www.w3.org/2000/svg" width="1426" height="1419" viewBox="0 0 1426 1419">
<rect width="100%" height="100%" fill="#FAFAF7"/>
<polygon points="268.00,1081.95 1128.00,1081.95 1128.00,1031.95 268.00,1031.95" fill="#F5F5F0" stroke="#888888" stroke-width="1" />
<polygon points="268.00,1166.95 375.50,1166.95 375.50,1081.95 268.00,1081.95" fill="#D7E7F2" stroke="#506674" stroke-width="1" />
<polygon points="375.50,1166.95 483.00,1166.95 483.00,1081.95 375.50,1081.95" fill="#D7E7F2" stroke="#506674" stroke-width="1" />
<polygon points="483.00,1166.95 590.50,1166.95 590.50,1081.95 483.00,1081.95" fill="#D7E7F2" stroke="#506674" stroke-width="1" />
<polygon points="590.50,1166.95 698.00,1166.95 698.00,1081.95 590.50,1081.95" fill="#D7E7F2" stroke="#506674" stroke-width="1" />
<polygon points="698.00,1166.95 805.50,1166.95 805.50,1081.95 698.00,1081.95" fill="#D7E7F2" stroke="#506674" stroke-width="1" />
<polygon points="805.50,1166.95 913.00,1166.95 913.00,1081.95 805.50,1081.95" fill="#D7E7F2" stroke="#506674" stroke-width="1" />
<polygon points="913.00,1166.95 1020.50,1166.95 1020.50,1081.95 913.00,1081.95" fill="#D7E7F2" stroke="#506674" stroke-width="1" />
<polygon points="1020.50,1166.95 1128.00,1166.95 1128.00,1081.95 1020.50,1081.95" fill="#D7E7F2" stroke="#506674" stroke-width="1" />
<polygon points="268.00,1031.95 375.50,1031.95 375.50,946.95 268.00,946.95" fill="#D7E7F2" stroke="#506674" stroke-width="1" />
<polygon points="375.50,1031.95 483.00,1031.95 483.00,946.95 375.50,946.95" fill="#D7E7F2" stroke="#506674" stroke-width="1" />
<polygon points="483.00,1031.95 590.50,1031.95 590.50,946.95 483.00,946.95" fill="#D7E7F2" stroke="#506674" stroke-width="1" />
<polygon points="590.50,1031.95 698.00,1031.95 698.00,946.95 590.50,946.95" fill="#D7E7F2" stroke="#506674" stroke-width="1" />
<polygon points="698.00,1031.95 805.50,1031.95 805.50,946.95 698.00,946.95" fill="#D7E7F2" stroke="#506674" stroke-width="1" />
<polygon points="805.50,1031.95 913.00,1031.95 913.00,946.95 805.50,946.95" fill="#D7E7F2" stroke="#506674" stroke-width="1" />
<polygon points="913.00,1031.95 1020.50,1031.95 1020.50,946.95 913.00,946.95" fill="#D7E7F2" stroke="#506674" stroke-width="1" />
<polygon points="1020.50,1031.95 1128.00,1031.95 1128.00,946.95 1020.50,946.95" fill="#D7E7F2" stroke="#506674" stroke-width="1" />
<polygon points="988.00,946.95 1058.00,946.95 1058.00,446.95 988.00,446.95" fill="#F5F5F0" stroke="#888888" stroke-width="1" />
<polygon points="928.00,946.95 988.00,946.95 988.00,863.62 928.00,863.62" fill="#D9ECD6" stroke="#567A56" stroke-width="1" />
<polygon points="928.00,863.62 988.00,863.62 988.00,780.29 928.00,780.29" fill="#D9ECD6" stroke="#567A56" stroke-width="1" />
<polygon points="928.00,780.29 988.00,780.29 988.00,696.95 928.00,696.95" fill="#D9ECD6" stroke="#567A56" stroke-width="1" />
<polygon points="928.00,696.95 988.00,696.95 988.00,613.62 928.00,613.62" fill="#D9ECD6" stroke="#567A56" stroke-width="1" />
<polygon points="928.00,613.62 988.00,613.62 988.00,530.29 928.00,530.29" fill="#D9ECD6" stroke="#567A56" stroke-width="1" />
<polygon points="928.00,530.29 988.00,530.29 988.00,446.95 928.00,446.95" fill="#D9ECD6" stroke="#567A56" stroke-width="1" />
<polygon points="1058.00,946.95 1128.00,946.95 1128.00,863.62 1058.00,863.62" fill="#D9ECD6" stroke="#567A56" stroke-width="1" />
<polygon points="1058.00,863.62 1128.00,863.62 1128.00,780.29 1058.00,780.29" fill="#D9ECD6" stroke="#567A56" stroke-width="1" />
<polygon points="1058.00,780.29 1128.00,780.29 1128.00,696.95 1058.00,696.95" fill="#D9ECD6" stroke="#567A56" stroke-width="1" />
<polygon points="1058.00,696.95 1128.00,696.95 1128.00,613.62 1058.00,613.62" fill="#D9ECD6" stroke="#567A56" stroke-width="1" />
<polygon points="1058.00,613.62 1128.00,613.62 1128.00,530.29 1058.00,530.29" fill="#D9ECD6" stroke="#567A56" stroke-width="1" />
<polygon points="1058.00,530.29 1128.00,530.29 1128.00,446.95 1058.00,446.95" fill="#D9ECD6" stroke="#567A56" stroke-width="1" />
<polygon points="168.00,366.95 1128.00,366.95 1128.00,316.95 168.00,316.95" fill="#F5F5F0" stroke="#888888" stroke-width="1" />
<polygon points="168.00,446.95 328.00,446.95 328.00,366.95 168.00,366.95" fill="#F5DFC1" stroke="#8B6A3D" stroke-width="1" />
<polygon points="328.00,446.95 488.00,446.95 488.00,366.95 328.00,366.95" fill="#F5DFC1" stroke="#8B6A3D" stroke-width="1" />
<polygon points="488.00,446.95 648.00,446.95 648.00,366.95 488.00,366.95" fill="#F5DFC1" stroke="#8B6A3D" stroke-width="1" />
<polygon points="648.00,446.95 808.00,446.95 808.00,366.95 648.00,366.95" fill="#F5DFC1" stroke="#8B6A3D" stroke-width="1" />
<polygon points="808.00,446.95 968.00,446.95 968.00,366.95 808.00,366.95" fill="#F5DFC1" stroke="#8B6A3D" stroke-width="1" />
<polygon points="968.00,446.95 1128.00,446.95 1128.00,366.95 968.00,366.95" fill="#F5DFC1" stroke="#8B6A3D" stroke-width="1" />
<polygon points="168.00,316.95 328.00,316.95 328.00,226.95 168.00,226.95" fill="#F5DFC1" stroke="#8B6A3D" stroke-width="1" />
<polygon points="328.00,316.95 488.00,316.95 488.00,226.95 328.00,226.95" fill="#F5DFC1" stroke="#8B6A3D" stroke-width="1" />
<polygon points="488.00,316.95 648.00,316.95 648.00,226.95 488.00,226.95" fill="#F5DFC1" stroke="#8B6A3D" stroke-width="1" />
<polygon points="648.00,316.95 808.00,316.95 808.00,226.95 648.00,226.95" fill="#F5DFC1" stroke="#8B6A3D" stroke-width="1" />
<polygon points="808.00,316.95 968.00,316.95 968.00,226.95 808.00,226.95" fill="#F5DFC1" stroke="#8B6A3D" stroke-width="1" />
<polygon points="968.00,316.95 1128.00,316.95 1128.00,226.95 968.00,226.95" fill="#F5DFC1" stroke="#8B6A3D" stroke-width="1" />
<polygon points="988.00,1031.95 1058.00,1031.95 1058.00,946.95 988.00,946.95" fill="#ECEBE2" stroke="#888888" stroke-width="1" />
<polygon points="988.00,446.95 1058.00,446.95 1058.00,366.95 988.00,366.95" fill="#ECEBE2" stroke="#888888" stroke-width="1" />
<polygon points="208.00,1186.95 268.00,1186.95 268.00,946.95 208.00,946.95" fill="#D8D8D8" stroke="#7F7F7F" stroke-width="1" />
<polygon points="1128.00,1166.95 1188.00,1166.95 1188.00,1026.95 1128.00,1026.95" fill="#D8D8D8" stroke="#7F7F7F" stroke-width="1" />
<polygon points="108.00,446.95 168.00,446.95 168.00,226.95 108.00,226.95" fill="#D8D8D8" stroke="#7F7F7F" stroke-width="1" />
<polygon points="1128.00,366.95 1188.00,366.95 1188.00,226.95 1128.00,226.95" fill="#D8D8D8" stroke="#7F7F7F" stroke-width="1" />
<polygon points="598.00,396.95 668.00,396.95 668.00,366.95 598.00,366.95" fill="#D8D8D8" stroke="#7F7F7F" stroke-width="1" />
<polygon points="218.00,1146.95 258.00,1146.95 258.00,1046.95 218.00,1046.95" fill="#B89B87" stroke="#6A4A2A" stroke-width="1" />
<polygon points="1138.00,1146.95 1178.00,1146.95 1178.00,1046.95 1138.00,1046.95" fill="#B89B87" stroke="#6A4A2A" stroke-width="1" />
<polygon points="1138.00,346.95 1178.00,346.95 1178.00,246.95 1138.00,246.95" fill="#B89B87" stroke="#6A4A2A" stroke-width="1" />
<polygon points="118.00,346.95 158.00,346.95 158.00,246.95 118.00,246.95" fill="#B89B87" stroke="#6A4A2A" stroke-width="1" />
<polygon points="618.00,386.95 648.00,386.95 648.00,326.95 618.00,326.95" fill="#BCD1EA" stroke="#4D6A8A" stroke-width="1" />
<polyline points="88.00,1206.95 1208.00,1206.95" fill="none" stroke="#666666" stroke-width="1" />
<polyline points="88.00,1331.95 1208.00,1331.95" fill="none" stroke="#666666" stroke-width="1" />
<polyline points="88.00,216.95 1208.00,216.95" fill="none" stroke="#666666" stroke-width="1" />
<polygon points="148.00,866.95 498.56,866.95 498.56,543.81 148.00,543.81" fill="none" stroke="#666666" stroke-width="1" />
<polygon points="207.36,806.75 207.17,777.63 226.01,778.17 226.84,787.29 235.53,785.65 237.79,772.32 395.15,773.32 396.05,792.18 415.31,793.52 415.91,650.44 437.62,649.10 436.18,628.56 251.69,627.44 250.55,657.33 231.57,657.68 231.77,688.79 191.47,689.25 178.00,678.66 178.76,631.55 197.66,630.65 198.00,617.89 192.57,612.68 193.86,594.91 205.34,587.07 217.59,586.04 228.79,596.98 229.49,601.50 253.39,601.25 255.17,584.84 279.72,585.06 281.38,595.75 293.19,595.65 295.12,583.81 439.26,585.12 439.67,606.39 448.94,606.69 448.81,602.08 468.56,603.08 466.81,629.00 450.51,629.80 450.18,646.29 466.18,651.00 466.69,795.67 445.20,794.68 445.16,826.10 417.31,826.95 415.70,809.04 396.39,807.43 395.23,818.56 236.16,819.56 235.99,803.45 226.16,801.51 225.63,807.38" fill="none" stroke="#A8A8A8" stroke-width="1" stroke-dasharray="10 6" />
<polygon points="250.48,1016.92 249.69,895.60 328.19,897.86 331.66,935.85 367.87,928.99 377.28,873.46 1032.94,877.62 1036.70,956.23 1116.96,961.82 1119.47,365.63 1209.92,360.06 1203.92,274.47 435.18,269.82 430.46,394.35 351.37,395.79 352.20,525.44 184.28,527.35 128.15,483.22 131.34,286.94 210.07,283.19 211.51,230.02 188.87,208.30 194.24,134.24 242.06,101.60 293.10,97.29 339.78,142.89 342.69,161.70 442.28,160.69 449.69,92.28 552.00,93.21 558.90,137.77 608.13,137.35 616.16,88.00 1216.73,93.49 1218.46,182.10 1257.09,183.32 1256.54,164.14 1338.82,168.29 1331.55,276.32 1263.60,279.64 1262.24,348.34 1328.91,367.98 1331.01,970.77 1241.47,966.63 1241.33,1097.55 1125.29,1101.11 1118.56,1026.46 1038.12,1019.77 1033.30,1066.14 370.51,1070.30 369.78,1003.16 328.83,995.09 326.61,1019.54" fill="none" stroke="#A8A8A8" stroke-width="1" stroke-dasharray="10 6" />
<text x="321.75" y="1124.45" font-family="Segoe UI, Arial, sans-serif" font-size="12" text-anchor="middle" dominant-baseline="middle" fill="#2E2E2E">21101</text>
<text x="429.25" y="1124.45" font-family="Segoe UI, Arial, sans-serif" font-size="12" text-anchor="middle" dominant-baseline="middle" fill="#2E2E2E">21102</text>
<text x="536.75" y="1124.45" font-family="Segoe UI, Arial, sans-serif" font-size="12" text-anchor="middle" dominant-baseline="middle" fill="#2E2E2E">21103</text>
<text x="644.25" y="1124.45" font-family="Segoe UI, Arial, sans-serif" font-size="12" text-anchor="middle" dominant-baseline="middle" fill="#2E2E2E">21104</text>
<text x="751.75" y="1124.45" font-family="Segoe UI, Arial, sans-serif" font-size="12" text-anchor="middle" dominant-baseline="middle" fill="#2E2E2E">21105</text>
<text x="859.25" y="1124.45" font-family="Segoe UI, Arial, sans-serif" font-size="12" text-anchor="middle" dominant-baseline="middle" fill="#2E2E2E">21106</text>
<text x="966.75" y="1124.45" font-family="Segoe UI, Arial, sans-serif" font-size="12" text-anchor="middle" dominant-baseline="middle" fill="#2E2E2E">21107</text>
<text x="1074.25" y="1124.45" font-family="Segoe UI, Arial, sans-serif" font-size="12" text-anchor="middle" dominant-baseline="middle" fill="#2E2E2E">21108</text>
<text x="321.75" y="989.45" font-family="Segoe UI, Arial, sans-serif" font-size="12" text-anchor="middle" dominant-baseline="middle" fill="#2E2E2E">21109</text>
<text x="429.25" y="989.45" font-family="Segoe UI, Arial, sans-serif" font-size="12" text-anchor="middle" dominant-baseline="middle" fill="#2E2E2E">21110</text>
<text x="536.75" y="989.45" font-family="Segoe UI, Arial, sans-serif" font-size="12" text-anchor="middle" dominant-baseline="middle" fill="#2E2E2E">21111</text>
<text x="644.25" y="989.45" font-family="Segoe UI, Arial, sans-serif" font-size="12" text-anchor="middle" dominant-baseline="middle" fill="#2E2E2E">21112</text>
<text x="751.75" y="989.45" font-family="Segoe UI, Arial, sans-serif" font-size="12" text-anchor="middle" dominant-baseline="middle" fill="#2E2E2E">21113</text>
<text x="859.25" y="989.45" font-family="Segoe UI, Arial, sans-serif" font-size="12" text-anchor="middle" dominant-baseline="middle" fill="#2E2E2E">21114</text>
<text x="966.75" y="989.45" font-family="Segoe UI, Arial, sans-serif" font-size="12" text-anchor="middle" dominant-baseline="middle" fill="#2E2E2E">21115</text>
<text x="1074.25" y="989.45" font-family="Segoe UI, Arial, sans-serif" font-size="12" text-anchor="middle" dominant-baseline="middle" fill="#2E2E2E">21116</text>
<text x="958.00" y="905.29" font-family="Segoe UI, Arial, sans-serif" font-size="12" text-anchor="middle" dominant-baseline="middle" fill="#2E2E2E" transform="rotate(-90.00 958.00 905.29)">22101</text>
<text x="958.00" y="821.95" font-family="Segoe UI, Arial, sans-serif" font-size="12" text-anchor="middle" dominant-baseline="middle" fill="#2E2E2E" transform="rotate(-90.00 958.00 821.95)">22102</text>
<text x="958.00" y="738.62" font-family="Segoe UI, Arial, sans-serif" font-size="12" text-anchor="middle" dominant-baseline="middle" fill="#2E2E2E" transform="rotate(-90.00 958.00 738.62)">22103</text>
<text x="958.00" y="655.29" font-family="Segoe UI, Arial, sans-serif" font-size="12" text-anchor="middle" dominant-baseline="middle" fill="#2E2E2E" transform="rotate(-90.00 958.00 655.29)">22104</text>
<text x="958.00" y="571.95" font-family="Segoe UI, Arial, sans-serif" font-size="12" text-anchor="middle" dominant-baseline="middle" fill="#2E2E2E" transform="rotate(-90.00 958.00 571.95)">22105</text>
<text x="958.00" y="488.62" font-family="Segoe UI, Arial, sans-serif" font-size="12" text-anchor="middle" dominant-baseline="middle" fill="#2E2E2E" transform="rotate(-90.00 958.00 488.62)">22106</text>
<text x="1093.00" y="905.29" font-family="Segoe UI, Arial, sans-serif" font-size="12" text-anchor="middle" dominant-baseline="middle" fill="#2E2E2E" transform="rotate(-90.00 1093.00 905.29)">22107</text>
<text x="1093.00" y="821.95" font-family="Segoe UI, Arial, sans-serif" font-size="12" text-anchor="middle" dominant-baseline="middle" fill="#2E2E2E" transform="rotate(-90.00 1093.00 821.95)">22108</text>
<text x="1093.00" y="738.62" font-family="Segoe UI, Arial, sans-serif" font-size="12" text-anchor="middle" dominant-baseline="middle" fill="#2E2E2E" transform="rotate(-90.00 1093.00 738.62)">22109</text>
<text x="1093.00" y="655.29" font-family="Segoe UI, Arial, sans-serif" font-size="12" text-anchor="middle" dominant-baseline="middle" fill="#2E2E2E" transform="rotate(-90.00 1093.00 655.29)">22110</text>
<text x="1093.00" y="571.95" font-family="Segoe UI, Arial, sans-serif" font-size="12" text-anchor="middle" dominant-baseline="middle" fill="#2E2E2E" transform="rotate(-90.00 1093.00 571.95)">22111</text>
<text x="1093.00" y="488.62" font-family="Segoe UI, Arial, sans-serif" font-size="12" text-anchor="middle" dominant-baseline="middle" fill="#2E2E2E" transform="rotate(-90.00 1093.00 488.62)">22112</text>
<text x="248.00" y="406.95" font-family="Segoe UI, Arial, sans-serif" font-size="12" text-anchor="middle" dominant-baseline="middle" fill="#2E2E2E">23101</text>
<text x="408.00" y="406.95" font-family="Segoe UI, Arial, sans-serif" font-size="12" text-anchor="middle" dominant-baseline="middle" fill="#2E2E2E">23102</text>
<text x="568.00" y="406.95" font-family="Segoe UI, Arial, sans-serif" font-size="12" text-anchor="middle" dominant-baseline="middle" fill="#2E2E2E">23103</text>
<text x="728.00" y="406.95" font-family="Segoe UI, Arial, sans-serif" font-size="12" text-anchor="middle" dominant-baseline="middle" fill="#2E2E2E">23104</text>
<text x="888.00" y="406.95" font-family="Segoe UI, Arial, sans-serif" font-size="12" text-anchor="middle" dominant-baseline="middle" fill="#2E2E2E">23105</text>
<text x="1048.00" y="406.95" font-family="Segoe UI, Arial, sans-serif" font-size="12" text-anchor="middle" dominant-baseline="middle" fill="#2E2E2E">23106</text>
<text x="248.00" y="271.95" font-family="Segoe UI, Arial, sans-serif" font-size="12" text-anchor="middle" dominant-baseline="middle" fill="#2E2E2E">23107</text>
<text x="408.00" y="271.95" font-family="Segoe UI, Arial, sans-serif" font-size="12" text-anchor="middle" dominant-baseline="middle" fill="#2E2E2E">23108</text>
<text x="568.00" y="271.95" font-family="Segoe UI, Arial, sans-serif" font-size="12" text-anchor="middle" dominant-baseline="middle" fill="#2E2E2E">23109</text>
<text x="728.00" y="271.95" font-family="Segoe UI, Arial, sans-serif" font-size="12" text-anchor="middle" dominant-baseline="middle" fill="#2E2E2E">23110</text>
<text x="888.00" y="271.95" font-family="Segoe UI, Arial, sans-serif" font-size="12" text-anchor="middle" dominant-baseline="middle" fill="#2E2E2E">23111</text>
<text x="1048.00" y="271.95" font-family="Segoe UI, Arial, sans-serif" font-size="12" text-anchor="middle" dominant-baseline="middle" fill="#2E2E2E">23112</text>
<text x="238.00" y="1096.95" font-family="Segoe UI, Arial, sans-serif" font-size="15" text-anchor="middle" dominant-baseline="middle" fill="#2E2E2E" transform="rotate(-90.00 238.00 1096.95)">Stair A</text>
<text x="1158.00" y="1096.95" font-family="Segoe UI, Arial, sans-serif" font-size="15" text-anchor="middle" dominant-baseline="middle" fill="#2E2E2E" transform="rotate(-90.00 1158.00 1096.95)">Stair B</text>
<text x="1158.00" y="296.95" font-family="Segoe UI, Arial, sans-serif" font-size="15" text-anchor="middle" dominant-baseline="middle" fill="#2E2E2E" transform="rotate(-90.00 1158.00 296.95)">Stair C</text>
<text x="138.00" y="296.95" font-family="Segoe UI, Arial, sans-serif" font-size="15" text-anchor="middle" dominant-baseline="middle" fill="#2E2E2E" transform="rotate(-90.00 138.00 296.95)">Stair D</text>
<text x="633.00" y="356.95" font-family="Segoe UI, Arial, sans-serif" font-size="14" text-anchor="middle" dominant-baseline="middle" fill="#2E2E2E" transform="rotate(-90.00 633.00 356.95)">EV</text>
<text x="628.00" y="336.95" font-family="Segoe UI, Arial, sans-serif" font-size="31" text-anchor="middle" dominant-baseline="middle" fill="#2E2E2E">WING 23</text>
<text x="1028.00" y="696.95" font-family="Segoe UI, Arial, sans-serif" font-size="31" text-anchor="middle" dominant-baseline="middle" fill="#2E2E2E" transform="rotate(-90.00 1028.00 696.95)">WING 22</text>
<text x="698.00" y="1056.95" font-family="Segoe UI, Arial, sans-serif" font-size="31" text-anchor="middle" dominant-baseline="middle" fill="#2E2E2E">WING 21</text>
<text x="648.00" y="166.95" font-family="Segoe UI, Arial, sans-serif" font-size="21" text-anchor="middle" dominant-baseline="middle" fill="#2E2E2E">Engineering Building 1 - Level 1</text>
<text x="648.00" y="206.95" font-family="Segoe UI, Arial, sans-serif" font-size="14" text-anchor="middle" dominant-baseline="middle" fill="#666666">Reference CAD | local meters</text>
<text x="368.00" y="1246.95" font-family="Segoe UI, Arial, sans-serif" font-size="11" text-anchor="middle" dominant-baseline="middle" fill="#666666">Origin: SW corner of Wing 21 body</text>
<text x="488.00" y="1276.95" font-family="Segoe UI, Arial, sans-serif" font-size="11" text-anchor="middle" dominant-baseline="middle" fill="#666666">Outline: OSM footprint | Interior: eng1.json schematic</text>
<text x="538.00" y="1306.95" font-family="Segoe UI, Arial, sans-serif" font-size="11" text-anchor="middle" dominant-baseline="middle" fill="#666666">Use ROOM_LABELS layer as generated refs, not surveyed room IDs.</text>
<text x="323.28" y="565.81" font-family="Segoe UI, Arial, sans-serif" font-size="12" text-anchor="middle" dominant-baseline="middle" fill="#666666">Key map</text>
<text x="297.96" y="643.56" font-family="Segoe UI, Arial, sans-serif" font-size="11" text-anchor="middle" dominant-baseline="middle" fill="#666666">W23</text>
<text x="393.96" y="729.96" font-family="Segoe UI, Arial, sans-serif" font-size="11" text-anchor="middle" dominant-baseline="middle" fill="#666666">W22</text>
<text x="314.76" y="816.36" font-family="Segoe UI, Arial, sans-serif" font-size="11" text-anchor="middle" dominant-baseline="middle" fill="#666666">W21</text>
</svg>
