<?xml version="1.0" encoding="UTF-8"?>
<svg id="uuid-cff199ab-3d81-4fd4-8fff-544b2044eaa8" data-name="Ebene 1" xmlns="http://www.w3.org/2000/svg" width="5000" height="5000" viewBox="0 0 5000 5000">
  <path d="M1599.2,4526.8v-450.4h-900.8c-123.86,0-229.892-44.102-318.095-132.305-88.203-88.203-132.305-194.235-132.305-318.095V923.6c0-123.86,44.102-229.892,132.305-318.095,88.203-88.203,194.235-132.305,318.095-132.305h3603.2c123.86,0,229.892,44.102,318.095,132.305,88.203,88.203,132.305,194.235,132.305,318.095v2702.4c0,123.86-44.102,229.892-132.305,318.095-88.203,88.203-194.235,132.305-318.095,132.305h-900.8v450.4h-1801.6ZM698.4,3626h3603.2V923.6H698.4v2702.4ZM698.4,3626V923.6v2702.4Z" style="fill: #025558;"/>
  <g>
    <rect x="886" y="1107" width="320" height="320" style="fill: #025558;"/>
    <path d="M1166,1147v240h-240v-240h240M1246,1067h-400v400h400v-400h0Z" style="fill: #025558;"/>
  </g>
  <g>
    <rect x="886" y="1811" width="320" height="320" style="fill: #025558;"/>
    <path d="M1166,1851v240h-240v-240h240M1246,1771h-400v400h400v-400h0Z" style="fill: #025558;"/>
  </g>
  <g>
    <rect x="886" y="2515" width="320" height="320" style="fill: #025558;"/>
    <path d="M1166,2555v240h-240v-240h240M1246,2475h-400v400h400v-400h0Z" style="fill: #025558;"/>
  </g>
  <g>
    <rect x="3798" y="1812" width="320" height="320" style="fill: #025558;"/>
    <path d="M4078,1852v240h-240v-240h240M4158,1772h-400v400h400v-400h0Z" style="fill: #025558;"/>
  </g>
  <g>
    <rect x="3798" y="2517" width="320" height="320" style="fill: #025558;"/>
    <path d="M4078,2557v240h-240v-240h240M4158,2477h-400v400h400v-400h0Z" style="fill: #025558;"/>
  </g>
  <g>
    <g>
      <rect x="1534.5" y="3118" width="320" height="320" style="fill: #025558;"/>
      <path d="M1814.5,3158v240h-240v-240h240M1894.5,3078h-400v400h400v-400h0Z" style="fill: #025558;"/>
    </g>
    <g>
      <rect x="2159.5" y="3118" width="1306" height="320" style="fill: #025558;"/>
      <path d="M3425.5,3158v240h-1226v-240h1226M3505.5,3078h-1386v400h1386v-400h0Z" style="fill: #025558;"/>
    </g>
  </g>
  <g>
    <rect x="3798" y="1107" width="320" height="320" style="fill: #025558;"/>
    <path d="M4078,1147v240h-240v-240h240M4158,1067h-400v400h400v-400h0Z" style="fill: #025558;"/>
  </g>
</svg>